<?xml version="1.0" encoding="utf-8"?>
<!-- Generator: Adobe Illustrator 24.3.0, SVG Export Plug-In . SVG Version: 6.00 Build 0)  -->
<svg version="1.1"
	 id="svg2176" inkscape:export-filename="ogesva-hicolor-256.png" inkscape:export-xdpi="92.389969" inkscape:export-ydpi="92.389969" inkscape:version="0.92.3 (2405546, 2018-03-11)" sodipodi:docname="ogesva-hicolor-scalable.svg" xmlns:cc="http://creativecommons.org/ns#" xmlns:dc="http://purl.org/dc/elements/1.1/" xmlns:inkscape="http://www.inkscape.org/namespaces/inkscape" xmlns:rdf="http://www.w3.org/1999/02/22-rdf-syntax-ns#" xmlns:sodipodi="http://sodipodi.sourceforge.net/DTD/sodipodi-0.dtd" xmlns:svg="http://www.w3.org/2000/svg"
	 xmlns="http://www.w3.org/2000/svg" xmlns:xlink="http://www.w3.org/1999/xlink" x="0px" y="0px" viewBox="0 0 266 266"
	 style="enable-background:new 0 0 266 266;" xml:space="preserve">
<style type="text/css">
	.st0{fill:url(#SVGID_1_);}
	.st1{fill:url(#SVGID_2_);}
</style>
<sodipodi:namedview  bordercolor="#666666" borderopacity="1.0" id="base" inkscape:current-layer="layer1" inkscape:cx="142.13222" inkscape:cy="145.16857" inkscape:document-units="mm" inkscape:pagecheckerboard="true" inkscape:pageopacity="0.0" inkscape:pageshadow="2" inkscape:window-height="1040" inkscape:window-maximized="1" inkscape:window-width="2048" inkscape:window-x="0" inkscape:window-y="34" inkscape:zoom="3.2460671" pagecolor="#ffffff" showgrid="false" units="px">
	</sodipodi:namedview>
<g id="layer1" transform="translate(0,-226.62082)" inkscape:groupmode="layer" inkscape:label="Layer 1">
	<path id="path1484" inkscape:connector-curvature="0" d="M35.6,231.6c0,0-30.6,0-30.6,30.6V457c0,0,0,30.6,30.6,30.6h194.7
		c0,0,30.6,0,30.6-30.6V262.3c0,0,0-30.6-30.6-30.6H35.6z"/>
</g>
<g>
	<linearGradient id="SVGID_1_" gradientUnits="userSpaceOnUse" x1="45.3715" y1="136.5863" x2="220.6285" y2="136.5863">
		<stop  offset="0" style="stop-color:#FAB235"/>
		<stop  offset="1" style="stop-color:#B7D042"/>
	</linearGradient>
	<path class="st0" d="M109.1,25.1c16,0,32,0,48,0c0.8,0.8,1.5,1.5,2.3,2.3c0.4,0.4,0.6,1,0.9,1.5c1.1,1.8,2.1,3.6,3.2,5.4
		c1.3,2.3,2.5,4.6,3.8,6.9c1.1,2,2.4,3.9,3.5,5.9c1.7,3,3.3,6,5,9c1.6,2.9,3.3,5.7,5,8.6c1.6,2.7,3.1,5.5,4.7,8.2
		c1.6,2.8,3.3,5.5,4.9,8.3c1.4,2.4,2.7,4.9,4.1,7.4c2.3,4,4.6,8,6.9,11.9c2.2,3.9,4.6,7.7,6.8,11.5c1.9,3.3,3.7,6.7,5.6,10
		c1.9,3.3,4,6.5,6,9.8c0.4,0.6,0.8,1.4,0.8,2.1c0.1,1.8,0,3.7,0,5.5c0,0.3-0.1,0.7-0.3,1c-1.8,3.2-3.7,6.5-5.6,9.7
		c-2.2,3.8-4.5,7.6-6.7,11.4c-1.2,2.1-2.3,4.4-3.6,6.5c-2,3.4-4,6.7-6,10c-1.3,2.3-2.6,4.6-3.9,6.9c-1.4,2.5-2.9,5-4.3,7.6
		c-1.3,2.3-2.5,4.6-3.8,6.8c-1,1.7-2.2,3.2-3.1,4.9c-1.5,2.6-2.8,5.4-4.2,8.1c-1.3,2.4-2.8,4.7-4.2,7c-1.9,3.2-3.7,6.4-5.6,9.6
		c-2.3,3.9-4.4,7.9-6.7,11.7c-1.6,2.6-2.4,5.8-5.2,7.5c-16,0-32,0-48,0c-0.6-0.5-1.4-0.9-1.8-1.6c-1.5-2.5-2.9-5-4.4-7.5
		c-2.4-4.1-4.8-8.1-7.2-12.2c-1.4-2.3-2.7-4.7-4-7c-1.2-2.2-2.5-4.4-3.7-6.6c-1.1-1.9-2.2-3.7-3.3-5.6c-1.1-1.9-2.3-3.8-3.4-5.8
		c-1.3-2.3-2.6-4.7-4-7c-1-1.7-2-3.5-3-5.2c-1.9-3.4-3.8-6.9-5.8-10.3c-1.5-2.5-3.1-5-4.5-7.5c-2.6-4.5-5-9.1-7.6-13.6
		c-2.9-5-5.9-10-8.8-15c-1-1.8-2-3.5-2.2-5.7c-0.3-3,1-5.4,2.4-7.8c1.5-2.5,3-4.9,4.5-7.5c2.6-4.5,5.1-9.1,7.6-13.7
		c1.6-2.8,3.2-5.6,4.9-8.4c1.3-2.2,2.7-4.5,4-6.7c1.2-2,2.4-4.1,3.5-6.1c1-1.8,1.9-3.7,2.9-5.5c1-1.8,2.1-3.6,3.2-5.5
		c1.5-2.5,2.9-5,4.3-7.5c1.3-2.2,2.7-4.4,4-6.7c1.5-2.6,3-5.3,4.5-7.9c1.5-2.5,3-5,4.5-7.5c1.6-2.8,3.1-5.6,4.7-8.3
		c1.5-2.7,3.1-5.4,4.7-8C106.3,28.5,107,26.2,109.1,25.1z M133.1,28.8C133.1,28.8,133.1,28.8,133.1,28.8c-7.1,0-14.3,0-21.4,0
		c-0.4,0-1,0.1-1.3,0.4c-0.6,0.8-1.1,1.7-1.6,2.5c-1.1,1.9-2.2,3.8-3.4,5.7c-1,1.7-2.1,3.4-3,5.1c-1,1.8-1.8,3.7-2.9,5.5
		c-1.7,3-3.5,6-5.3,9.1c-1.1,1.9-2,3.8-3.1,5.6c-1,1.8-2.2,3.5-3.3,5.2c-1.9,3-3.3,6.4-5.4,9.3c-1.2,1.7-2,3.8-3,5.6
		c-1.7,2.9-3.4,5.7-5.1,8.6c-1.9,3.3-3.8,6.6-5.7,9.9c-2.6,4.6-5.2,9.3-7.8,13.9c-1.8,3.2-3.7,6.2-5.5,9.4c-1.7,2.9-3.3,5.9-5,8.9
		c-0.7,1.2-0.4,1.8,0.9,1.8c13.8,0,27.5,0,41.3,0c0.9,0,1.5-0.4,1.9-1.2c0.2-0.5,0.5-1,0.8-1.5c1.4-2.3,2.8-4.6,4.2-7
		c1.9-3.2,3.7-6.4,5.5-9.5c2.4-4.2,4.9-8.3,7.4-12.5c2.9-5,5.7-10.1,8.6-15.1c3-5.2,6.1-10.4,9.1-15.6c2.2-3.8,4.3-7.6,6.5-11.4
		c0.9-1.6,1.8-3.1,2.7-4.7c1-1.7,1.9-3.4,2.9-5c1.1-1.8,2.3-3.6,3.3-5.4c2.2-3.8,4.3-7.7,6.4-11.5c0.5-0.9,1.5-1.2,2.4-0.8
		c1.1,0.4,0.7,1.4,0.6,2.1c-0.1,0.8-0.6,1.5-1,2.2c-0.6,1.3-1.2,2.6-1.8,3.9c-0.8,1.8-1.5,3.6-2.3,5.4c-1.1,2.5-2.2,4.9-3.3,7.3
		c-1,2.2-1.8,4.5-2.8,6.7c-0.8,1.8-1.7,3.6-2.6,5.4c-1.2,2.5-2.3,5.1-3.5,7.6c-0.1,0.3-0.1,0.9,0,1.2c1.8,3.2,3.7,6.5,5.6,9.7
		c2.5,4.4,5,8.7,7.6,13.1c1.7,3,3.5,6,5.2,8.9c0.9,1.6,2,3.1,2.9,4.7c0.6,1.1,1.1,2.3,1.8,3.4c1,1.8,2.2,3.6,3.2,5.4
		c1.2,2.1,2.2,4.2,3.4,6.2c1.2,2,2.4,4.1,3.6,6.1c0.4,0.7,0.9,1.3,2,1.3c13.2,0,26.3,0,39.5,0c0.9,0,1.7,0,2.6,0
		c0.8-0.1,1.1-0.7,0.7-1.4c-0.3-0.5-0.6-1-0.9-1.5c-1.5-2.5-2.9-5-4.4-7.5c-1.6-2.8-3.2-5.6-4.8-8.3c-0.8-1.4-1.6-2.7-2.4-4.1
		c-0.7-1.3-1.4-2.7-2.2-4c-2.2-3.7-4.4-7.4-6.5-11.1c-2.7-4.6-5.3-9.3-8-13.9c-1.7-3-3.5-5.9-5.2-8.9c-2.2-3.8-4.5-7.6-6.7-11.5
		c-1.5-2.6-3-5.3-4.5-7.9c-1-1.8-2.1-3.5-3.1-5.3c-0.8-1.3-1.6-2.7-2.4-4c-1.3-2.3-2.6-4.6-3.9-6.9c-1.2-2.2-2.6-4.4-3.7-6.6
		c-0.9-1.7-1.9-2.7-4.1-2.6C146.4,28.9,139.7,28.8,133.1,28.8z M133.1,86.5c-0.9,1.6-1.6,2.9-2.3,4.2c-1.2,2.1-2.3,4.3-3.6,6.4
		c-1.5,2.6-3.2,5.1-4.7,7.7c-1.9,3.4-3.7,6.9-5.6,10.3c-1.5,2.6-3.1,5.1-4.6,7.7c-2,3.4-4,6.8-5.9,10.3c-1,1.9-2.9,3.6-1,6.1
		c1.2,1.7,2.1,3.6,3.2,5.4c1,1.6,2,3.2,3,4.9c1.1,1.9,2.2,3.8,3.3,5.7c1.2,2,2.5,4,3.7,6.1c1.5,2.7,2.9,5.4,4.4,8.1
		c2.4,4.2,5,8.4,7.4,12.6c1,1.6,1.9,3.3,2.9,5c0.3-0.3,0.5-0.5,0.6-0.8c0.7-1.4,1.4-2.8,2.2-4.2c1.2-2.1,2.5-4.2,3.8-6.2
		c1.3-2.2,2.6-4.5,3.9-6.7c1.5-2.7,3-5.3,4.6-8c1.2-2.1,2.4-4.1,3.6-6.2c1.3-2.2,2.5-4.4,3.8-6.6c2.2-3.8,4.4-7.5,6.5-11.3
		c0.1-0.2-0.1-0.6-0.2-0.8c-1.7-2.9-3.5-5.7-5.1-8.6c-1.5-2.6-2.9-5.2-4.4-7.8c-1.7-2.9-3.5-5.8-5.3-8.8c-1.5-2.5-2.8-5.1-4.3-7.7
		c-1.5-2.7-3.1-5.4-4.6-8.1c-1-1.8-2-3.7-3.1-5.5C134.4,88.5,133.8,87.6,133.1,86.5z M98.2,138.9C98.2,138.9,98.2,138.9,98.2,138.9
		c-0.5,0-1.1,0-1.6,0c-0.7,0-1.1,0.3-0.6,1c0.3,0.4,0.6,0.8,0.9,1.2c1.8,3.2,3.5,6.5,5.3,9.6c1.5,2.6,3.1,5,4.5,7.6
		c2.3,4,4.5,8,6.8,12c1.8,3.1,3.6,6.3,5.4,9.4c1.4,2.4,2.9,4.8,4.3,7.2c1.6,2.8,3.1,5.8,4.9,8.5c1.2,1.9,1.6,3.5,0.1,5.3
		c-0.1,0.1-0.1,0.3-0.2,0.4c-0.8,2-1.5,4-2.4,5.9c-1.2,2.8-2.6,5.5-3.8,8.2c-1.1,2.5-2.1,5.1-3.2,7.7c-0.8,2-1.7,3.9-2.5,5.8
		c-0.8,1.8-1.5,3.5-2.3,5.3c-0.5,1.2-1.1,2.3-1.5,3.5c-0.1,0.3,0.2,0.8,0.2,1.2c0.4-0.2,0.9-0.3,1.1-0.6c0.9-1.5,1.8-3.1,2.7-4.6
		c1.3-2.3,2.7-4.6,4-6.9c1.2-2,2.3-4,3.5-6c1.7-3,3.5-6,5.3-8.9c1.8-3,3.5-6.1,5.2-9.1c2.2-3.7,4.4-7.4,6.5-11.1
		c1.8-3.1,3.5-6.3,5.3-9.4c2.1-3.7,4.3-7.4,6.4-11.2c1.4-2.5,2.8-5,4.2-7.5c0.8-1.5,1.8-2.9,2.7-4.3c0.9-1.6,1.8-3.1,2.7-4.7
		c1.5-2.5,2.9-5.1,4.4-7.6c1.4-2.5,2.8-5.1,4.3-7.5c0.5-0.9,0.2-1-0.6-1.1c-1.3,0-2.5,0-3.8,0c-0.4,0-0.9,0.3-1,0.6
		c-1.2,2-2.4,3.9-3.5,6c-1.7,3-3.3,6.1-5,9.2c-1.2,2.1-2.5,4.2-3.8,6.3c-1.4,2.3-2.7,4.7-4,7c-1.4,2.5-2.9,4.9-4.3,7.4
		c-1.5,2.7-2.8,5.5-4.4,8.2c-1.7,2.9-3.6,5.7-5.3,8.6c-1.1,1.7-2.4,1.8-3.6,0.3c-0.6-0.8-1.2-1.6-1.7-2.5c-1.3-2.3-2.5-4.6-3.8-6.9
		c-1.5-2.7-3-5.4-4.6-8c-1.4-2.3-2.8-4.7-4.2-7c-0.9-1.4-1.8-2.7-2.7-4.2c-1.1-1.9-2.1-3.9-3.2-5.8c-1-1.7-2-3.4-3-5
		c-1.6-2.8-3.2-5.6-4.8-8.4c-0.7-1.2-1.5-2.4-2.1-3.7c-0.4-0.9-1-1.2-1.9-1.3C99.1,138.9,98.7,138.9,98.2,138.9z"/>
	<linearGradient id="SVGID_2_" gradientUnits="userSpaceOnUse" x1="156.6542" y1="136.5863" x2="109.3458" y2="136.5863">
		<stop  offset="0" style="stop-color:#FAB235"/>
		<stop  offset="1" style="stop-color:#B7D042"/>
	</linearGradient>
	<path class="st1" d="M156.7,136.7c0,0.1,0,0.3,0,0.4c-0.3,0.5-0.6,0.9-0.9,1.4c-0.2,0.4-0.5,0.6-0.9,0.6c-2.8,0-5.6,0-8.5,0
		c-0.4,0-0.7,0.2-1,0.6c-3.4,5.8-6.8,11.5-10.2,17.3c-0.2,0.3-0.3,0.8-0.3,1.2c0,2.2,0,4.3,0,6.5c0,0.1,0,0.3,0,0.6
		c0.2-0.4,0.4-0.7,0.6-1c4.4-7.3,8.8-14.6,13.2-22c0.2-0.4,0.5-0.6,0.9-0.6c1.2,0,2.5,0,3.7,0c0.1,0,0.2,0,0.4,0
		c-6.9,11.4-13.8,22.7-20.6,34c-0.1,0-0.1,0-0.2,0c-6.8-11.3-13.7-22.6-20.5-33.9c0,0,0-0.1,0.1-0.1c1.2,0,2.4,0,3.6,0
		c0.7,0,1.1,0.3,1.5,1c4.4,7.4,8.9,14.7,13.3,22.1c0.1,0.1,0.1,0.2,0.3,0.4c0-0.2,0-0.4,0-0.5c0-2.1,0-4.2,0-6.4
		c0-0.6-0.1-1-0.4-1.4c-3.4-5.7-6.8-11.4-10.1-17.2c-0.3-0.5-0.6-0.7-1-0.7c-2.8,0-5.6,0-8.4,0c-0.4,0-0.7-0.2-1-0.6
		c-0.3-0.5-0.6-0.9-0.9-1.4c0-0.1,0-0.3,0-0.4c0.3-0.4,0.6-0.8,0.9-1.3c0.3-0.6,0.7-0.8,1.2-0.8c2.8,0,5.6,0,8.3,0
		c0.4,0,0.6-0.1,0.9-0.5c2.9-4.8,5.7-9.6,8.6-14.4c0.1-0.1,0.2-0.3,0.3-0.5c-0.2,0-0.3,0-0.5,0c-1.4,0-2.8,0-4.1,0
		c-0.5,0-0.9,0.2-1.2,0.8c-2.3,3.8-4.5,7.6-6.8,11.5c-0.2,0.4-0.5,0.6-0.9,0.6c-1.1,0-2.1,0-3.2,0c-0.1,0-0.3,0-0.4,0
		c0-0.1-0.1-0.1-0.1-0.2c6.9-11.5,13.7-23,20.6-34.5c0.1,0,0.1,0,0.2,0c6.9,11.5,13.7,23,20.7,34.6c-0.3,0-0.4,0-0.5,0
		c-1.1,0-2.2,0-3.3,0c-0.4,0-0.6-0.2-0.9-0.6c-2.3-3.9-4.6-7.8-6.9-11.7c-0.2-0.4-0.5-0.6-0.9-0.6c-1.4,0-2.7,0-4.1,0
		c-0.2,0-0.4,0-0.7,0c2.6,4.3,5.1,8.5,7.6,12.8c-0.2,0-0.4,0-0.5,0c-1,0-2,0-2.9,0c-0.6,0-1-0.2-1.4-0.9c-1.9-3.2-3.8-6.3-5.6-9.5
		c-0.2-0.3-0.4-0.6-0.6-1c-3.3,5.5-6.5,10.9-9.8,16.4c3.3,5.4,6.5,10.8,9.8,16.2c2.8-4.7,5.6-9.3,8.4-14c-1,0-2,0-2.9,0
		c-0.4,0-0.6,0.2-0.9,0.5c-1.4,2.2-2.8,4.4-4.2,6.6c-0.2,0.2-0.3,0.5-0.5,0.8c0-4.2,0-8.3,0-12.5c0.1,0,0.2,0,0.3,0
		c7.2,0,14.4,0,21.5,0c0.4,0,0.6,0.2,0.9,0.6C156,135.7,156.3,136.2,156.7,136.7z M131.1,114.5c0-2.2,0-4.4,0-6.7
		c-1.4,2.3-2.6,4.4-4,6.7C128.5,114.5,129.8,114.5,131.1,114.5z M134.8,114.5c1.3,0,2.6,0,4,0c-1.3-2.2-2.6-4.4-3.9-6.6
		c0,0-0.1,0-0.1,0.1C134.8,110.2,134.8,112.3,134.8,114.5z"/>
</g>
</svg>
