<?xml version="1.0" encoding="utf-8"?>
<!-- Generator: Adobe Illustrator 24.3.0, SVG Export Plug-In . SVG Version: 6.00 Build 0)  -->
<svg version="1.1"
	 id="svg2176" inkscape:export-filename="ogesva-HighContrast-256.png" inkscape:export-xdpi="92.389969" inkscape:export-ydpi="92.389969" inkscape:version="0.92.4 (unknown)" sodipodi:docname="ogesva-HighContrast-scalable.svg" xmlns:cc="http://creativecommons.org/ns#" xmlns:dc="http://purl.org/dc/elements/1.1/" xmlns:inkscape="http://www.inkscape.org/namespaces/inkscape" xmlns:rdf="http://www.w3.org/1999/02/22-rdf-syntax-ns#" xmlns:sodipodi="http://sodipodi.sourceforge.net/DTD/sodipodi-0.dtd" xmlns:svg="http://www.w3.org/2000/svg"
	 xmlns="http://www.w3.org/2000/svg" xmlns:xlink="http://www.w3.org/1999/xlink" x="0px" y="0px" viewBox="0 0 266 266"
	 style="enable-background:new 0 0 266 266;" xml:space="preserve">
<style type="text/css">
	.st0{stroke:#FFFFFF;stroke-width:9.998;stroke-miterlimit:15.1181;}
	.st1{fill:url(#SVGID_1_);}
	.st2{fill:url(#SVGID_2_);}
</style>
<sodipodi:namedview  bordercolor="#666666" borderopacity="1.0" id="base" inkscape:current-layer="layer1" inkscape:cx="121.18379" inkscape:cy="143.93631" inkscape:document-units="mm" inkscape:pagecheckerboard="true" inkscape:pageopacity="0.0" inkscape:pageshadow="2" inkscape:window-height="1088" inkscape:window-maximized="1" inkscape:window-width="2048" inkscape:window-x="0" inkscape:window-y="27" inkscape:zoom="3.2460671" pagecolor="#ffffff" showgrid="false" units="px">
	</sodipodi:namedview>
<g id="layer1" transform="translate(0,-226.62082)" inkscape:groupmode="layer" inkscape:label="Layer 1">
	<path id="path1484" inkscape:connector-curvature="0" class="st0" d="M35.6,231.6c0,0-30.6,0-30.6,30.6V457c0,0,0,30.6,30.6,30.6
		h194.7c0,0,30.6,0,30.6-30.6V262.3c0,0,0-30.6-30.6-30.6H35.6z"/>
</g>
<g>
	<linearGradient id="SVGID_1_" gradientUnits="userSpaceOnUse" x1="55.3359" y1="133" x2="211.3015" y2="133">
		<stop  offset="0" style="stop-color:#FAB235"/>
		<stop  offset="1" style="stop-color:#B7D042"/>
	</linearGradient>
	<path class="st1" d="M112.1,33.8c14.2,0,28.5,0,42.7,0c0.7,0.7,1.4,1.3,2,2c0.3,0.4,0.5,0.9,0.8,1.3c0.9,1.6,1.9,3.2,2.8,4.8
		c1.2,2,2.3,4.1,3.4,6.1c1,1.8,2.1,3.5,3.2,5.2c1.5,2.7,3,5.4,4.5,8c1.5,2.6,3,5.1,4.4,7.6c1.4,2.4,2.7,4.9,4.2,7.3
		c1.4,2.5,2.9,4.9,4.4,7.4c1.2,2.2,2.4,4.4,3.6,6.5c2,3.5,4.1,7.1,6.1,10.6c2,3.4,4.1,6.8,6,10.3c1.7,3,3.3,6,5,8.9
		c1.7,2.9,3.6,5.8,5.3,8.7c0.3,0.6,0.7,1.2,0.7,1.9c0.1,1.6,0,3.3,0,4.9c0,0.3-0.1,0.6-0.2,0.9c-1.6,2.9-3.3,5.8-5,8.6
		c-2,3.4-4,6.8-5.9,10.2c-1.1,1.9-2.1,3.9-3.2,5.8c-1.8,3-3.6,5.9-5.3,8.9c-1.2,2-2.3,4.1-3.4,6.1c-1.3,2.3-2.6,4.5-3.9,6.7
		c-1.1,2-2.2,4.1-3.4,6.1c-0.9,1.5-1.9,2.8-2.8,4.3c-1.3,2.4-2.5,4.8-3.8,7.2c-1.2,2.1-2.5,4.2-3.7,6.2c-1.7,2.8-3.3,5.7-5,8.5
		c-2,3.5-3.9,7-6,10.4c-1.4,2.3-2.1,5.1-4.6,6.6c-14.2,0-28.5,0-42.7,0c-0.6-0.5-1.3-0.8-1.6-1.4c-1.4-2.2-2.6-4.5-3.9-6.7
		c-2.1-3.6-4.3-7.2-6.4-10.8c-1.2-2.1-2.4-4.2-3.6-6.3c-1.1-2-2.2-3.9-3.3-5.9c-1-1.7-2-3.3-2.9-5c-1-1.7-2.1-3.4-3.1-5.1
		c-1.2-2.1-2.3-4.2-3.5-6.3c-0.9-1.6-1.8-3.1-2.7-4.6c-1.7-3.1-3.4-6.1-5.2-9.2c-1.3-2.3-2.7-4.4-4-6.7c-2.3-4-4.5-8.1-6.8-12.1
		c-2.6-4.5-5.2-8.9-7.8-13.4c-0.9-1.6-1.8-3.1-2-5c-0.2-2.6,0.9-4.8,2.2-6.9c1.3-2.2,2.7-4.4,4-6.6c2.3-4,4.5-8.1,6.8-12.2
		c1.4-2.5,2.9-5,4.3-7.5c1.2-2,2.4-4,3.6-6c1.1-1.8,2.1-3.6,3.2-5.4c0.9-1.6,1.7-3.3,2.6-4.9c0.9-1.6,1.9-3.2,2.8-4.9
		c1.3-2.2,2.6-4.5,3.9-6.7c1.2-2,2.4-3.9,3.5-5.9c1.4-2.3,2.6-4.7,4-7.1c1.3-2.2,2.7-4.4,4-6.7c1.4-2.4,2.7-4.9,4.2-7.4
		c1.4-2.4,2.8-4.8,4.2-7.1C109.5,36.8,110.1,34.8,112.1,33.8z M133.4,37.1C133.4,37.1,133.4,37.1,133.4,37.1c-6.3,0-12.7,0-19,0
		c-0.4,0-0.9,0.1-1.1,0.4c-0.5,0.7-1,1.5-1.4,2.3c-1,1.7-2,3.4-3,5.1c-0.9,1.5-1.8,3-2.7,4.5c-0.9,1.6-1.6,3.3-2.5,4.9
		c-1.5,2.7-3.1,5.4-4.7,8.1c-0.9,1.6-1.8,3.4-2.7,5c-0.9,1.6-2,3.1-3,4.7c-1.7,2.7-2.9,5.7-4.8,8.3c-1.1,1.5-1.7,3.3-2.7,5
		c-1.5,2.6-3,5.1-4.5,7.6c-1.7,2.9-3.4,5.8-5.1,8.8c-2.3,4.1-4.6,8.2-6.9,12.3c-1.6,2.8-3.3,5.5-4.9,8.3c-1.5,2.6-3,5.3-4.5,7.9
		c-0.6,1.1-0.4,1.6,0.8,1.6c12.2,0,24.5,0,36.7,0c0.8,0,1.4-0.3,1.7-1.1c0.2-0.5,0.5-0.9,0.7-1.4c1.2-2.1,2.5-4.1,3.7-6.2
		c1.7-2.8,3.3-5.7,4.9-8.5c2.2-3.7,4.4-7.4,6.6-11.1c2.6-4.5,5.1-9,7.6-13.4c2.7-4.7,5.4-9.3,8.1-13.9c2-3.4,3.9-6.8,5.8-10.2
		c0.8-1.4,1.6-2.8,2.4-4.1c0.9-1.5,1.7-3,2.5-4.5c1-1.6,2-3.2,3-4.8c1.9-3.4,3.8-6.9,5.7-10.3c0.4-0.8,1.4-1,2.2-0.7
		c1,0.4,0.6,1.3,0.5,1.9c-0.1,0.7-0.6,1.3-0.9,1.9c-0.5,1.1-1.1,2.3-1.6,3.4c-0.7,1.6-1.4,3.2-2.1,4.8c-1,2.2-2,4.3-2.9,6.5
		c-0.9,2-1.6,4-2.5,5.9c-0.7,1.6-1.5,3.2-2.3,4.8c-1,2.3-2.1,4.5-3.1,6.8c-0.1,0.3-0.1,0.8,0,1.1c1.6,2.9,3.3,5.8,4.9,8.6
		c2.2,3.9,4.5,7.8,6.7,11.6c1.5,2.7,3.1,5.3,4.7,8c0.8,1.4,1.7,2.8,2.6,4.2c0.6,1,1,2.1,1.6,3.1c0.9,1.6,2,3.2,2.9,4.8
		c1,1.8,2,3.7,3,5.5c1,1.8,2.1,3.6,3.2,5.4c0.4,0.6,0.8,1.2,1.8,1.2c11.7,0,23.4,0,35.2,0c0.8,0,1.5,0,2.3,0c0.8-0.1,1-0.6,0.7-1.3
		c-0.2-0.4-0.5-0.9-0.8-1.3c-1.3-2.2-2.6-4.4-3.9-6.7c-1.4-2.5-2.8-5-4.3-7.4c-0.7-1.2-1.4-2.4-2.1-3.6c-0.7-1.2-1.3-2.4-1.9-3.6
		c-1.9-3.3-3.9-6.6-5.8-9.9c-2.4-4.1-4.7-8.3-7.1-12.4c-1.5-2.7-3.1-5.3-4.7-7.9c-2-3.4-4-6.8-6-10.2c-1.4-2.3-2.7-4.7-4-7
		c-0.9-1.6-1.9-3.1-2.8-4.7c-0.7-1.2-1.5-2.4-2.1-3.6c-1.2-2-2.3-4.1-3.5-6.1c-1.1-2-2.3-3.9-3.3-5.9c-0.8-1.6-1.7-2.4-3.7-2.3
		C145.2,37.2,139.3,37.1,133.4,37.1z M133.4,88.4c-0.8,1.4-1.4,2.6-2.1,3.7c-1.1,1.9-2.1,3.8-3.2,5.7c-1.4,2.3-2.9,4.5-4.2,6.9
		c-1.7,3-3.3,6.1-5,9.1c-1.3,2.3-2.8,4.5-4.1,6.8c-1.8,3-3.6,6-5.3,9.1c-0.9,1.7-2.6,3.2-0.9,5.4c1.1,1.5,1.9,3.2,2.8,4.8
		c0.9,1.5,1.8,2.9,2.6,4.3c1,1.7,1.9,3.4,2.9,5.1c1.1,1.8,2.2,3.6,3.3,5.4c1.4,2.4,2.6,4.8,4,7.2c2.2,3.8,4.4,7.5,6.6,11.2
		c0.8,1.4,1.7,2.9,2.6,4.5c0.2-0.3,0.4-0.5,0.6-0.7c0.6-1.2,1.2-2.5,1.9-3.8c1.1-1.9,2.3-3.7,3.4-5.6c1.2-2,2.3-4,3.5-6
		c1.4-2.4,2.7-4.7,4.1-7.1c1.1-1.8,2.1-3.7,3.2-5.5c1.1-1.9,2.2-3.9,3.4-5.8c1.9-3.3,3.9-6.7,5.8-10c0.1-0.2-0.1-0.5-0.2-0.7
		c-1.5-2.6-3.1-5.1-4.6-7.7c-1.3-2.3-2.6-4.6-3.9-6.9c-1.5-2.6-3.2-5.2-4.7-7.8c-1.3-2.3-2.5-4.6-3.8-6.8c-1.4-2.4-2.8-4.8-4.1-7.2
		c-0.9-1.6-1.8-3.3-2.7-4.9C134.6,90.2,134,89.4,133.4,88.4z M102.4,135C102.4,135,102.4,135,102.4,135c-0.5,0-1,0-1.5,0
		c-0.6,0-0.9,0.3-0.5,0.9c0.3,0.4,0.6,0.7,0.8,1.1c1.6,2.9,3.1,5.7,4.7,8.6c1.3,2.3,2.7,4.5,4,6.7c2,3.5,4,7.1,6,10.7
		c1.6,2.8,3.2,5.6,4.8,8.3c1.2,2.1,2.5,4.3,3.8,6.4c1.5,2.5,2.8,5.2,4.4,7.6c1.1,1.7,1.4,3.1,0.1,4.7c-0.1,0.1-0.1,0.3-0.2,0.4
		c-0.7,1.8-1.4,3.5-2.1,5.2c-1.1,2.5-2.3,4.9-3.4,7.3c-1,2.3-1.9,4.6-2.8,6.8c-0.7,1.7-1.5,3.5-2.2,5.2c-0.7,1.6-1.4,3.1-2.1,4.7
		c-0.5,1-1,2-1.4,3.1c-0.1,0.3,0.1,0.7,0.2,1.1c0.3-0.2,0.8-0.3,1-0.6c0.8-1.3,1.6-2.7,2.4-4.1c1.2-2,2.4-4.1,3.6-6.1
		c1-1.8,2-3.6,3.1-5.4c1.6-2.7,3.1-5.3,4.7-8c1.6-2.7,3.1-5.4,4.7-8.1c1.9-3.3,3.9-6.6,5.8-9.9c1.6-2.8,3.1-5.6,4.7-8.4
		c1.9-3.3,3.8-6.6,5.7-9.9c1.3-2.2,2.5-4.4,3.8-6.7c0.8-1.3,1.6-2.6,2.4-3.9c0.8-1.4,1.6-2.8,2.4-4.2c1.3-2.3,2.6-4.5,3.9-6.8
		c1.3-2.2,2.5-4.5,3.8-6.7c0.5-0.8,0.2-0.9-0.5-0.9c-1.1,0-2.2,0-3.3,0c-0.3,0-0.8,0.3-0.9,0.5c-1.1,1.7-2.1,3.5-3.1,5.3
		c-1.5,2.7-2.9,5.4-4.5,8.1c-1.1,1.9-2.3,3.7-3.4,5.6c-1.2,2.1-2.4,4.2-3.6,6.2c-1.3,2.2-2.6,4.3-3.8,6.5c-1.3,2.4-2.5,4.9-3.9,7.3
		c-1.5,2.6-3.2,5.1-4.7,7.7c-0.9,1.5-2.1,1.6-3.2,0.3c-0.5-0.7-1-1.5-1.5-2.2c-1.2-2-2.3-4.1-3.4-6.1c-1.3-2.4-2.7-4.8-4.1-7.2
		c-1.2-2.1-2.4-4.2-3.7-6.2c-0.8-1.2-1.6-2.4-2.4-3.7c-1-1.7-1.9-3.5-2.9-5.2c-0.9-1.5-1.8-3-2.6-4.5c-1.4-2.5-2.8-5-4.3-7.4
		c-0.6-1.1-1.3-2.2-1.9-3.3c-0.4-0.8-0.9-1.1-1.7-1.1C103.1,135,102.8,135,102.4,135z"/>
	<linearGradient id="SVGID_2_" gradientUnits="userSpaceOnUse" x1="154.3692" y1="133" x2="112.2683" y2="133">
		<stop  offset="0" style="stop-color:#FAB235"/>
		<stop  offset="1" style="stop-color:#B7D042"/>
	</linearGradient>
	<path class="st2" d="M154.4,133.1c0,0.1,0,0.2,0,0.4c-0.3,0.4-0.6,0.8-0.8,1.3c-0.2,0.4-0.5,0.5-0.8,0.5c-2.5,0-5,0-7.5,0
		c-0.4,0-0.6,0.2-0.9,0.6c-3,5.1-6.1,10.2-9.1,15.4c-0.2,0.3-0.3,0.7-0.3,1.1c0,1.9,0,3.8,0,5.8c0,0.1,0,0.3,0,0.5
		c0.2-0.3,0.4-0.6,0.5-0.9c3.9-6.5,7.9-13,11.8-19.5c0.2-0.3,0.4-0.5,0.8-0.5c1.1,0,2.2,0,3.3,0c0.1,0,0.2,0,0.4,0
		c-6.1,10.1-12.2,20.2-18.3,30.2c0,0-0.1,0-0.1,0c-6.1-10-12.2-20.1-18.3-30.1c0,0,0-0.1,0.1-0.1c1.1,0,2.1,0,3.2,0
		c0.6,0,1,0.2,1.4,0.9c3.9,6.6,7.9,13.1,11.8,19.7c0.1,0.1,0.1,0.2,0.2,0.4c0-0.2,0-0.3,0-0.5c0-1.9,0-3.8,0-5.7
		c0-0.5-0.1-0.9-0.3-1.3c-3-5.1-6-10.2-9-15.3c-0.3-0.4-0.5-0.6-0.9-0.6c-2.5,0-5,0-7.5,0c-0.4,0-0.6-0.2-0.9-0.6
		c-0.2-0.4-0.5-0.8-0.8-1.2c0-0.1,0-0.2,0-0.4c0.3-0.4,0.5-0.8,0.8-1.2c0.3-0.5,0.6-0.7,1.1-0.7c2.5,0,4.9,0,7.4,0
		c0.3,0,0.6-0.1,0.8-0.5c2.6-4.3,5.1-8.6,7.7-12.8c0.1-0.1,0.1-0.3,0.2-0.5c-0.2,0-0.3,0-0.4,0c-1.2,0-2.5,0-3.7,0
		c-0.5,0-0.8,0.2-1.1,0.7c-2,3.4-4,6.8-6,10.2c-0.2,0.3-0.4,0.5-0.8,0.5c-1,0-1.9,0-2.9,0c-0.1,0-0.3,0-0.4,0c0,0,0-0.1-0.1-0.1
		c6.1-10.2,12.2-20.5,18.3-30.7c0,0,0.1,0,0.1,0c6.1,10.2,12.2,20.5,18.4,30.8c-0.2,0-0.3,0-0.5,0c-1,0-2,0-2.9,0
		c-0.3,0-0.6-0.2-0.8-0.5c-2-3.5-4.1-6.9-6.2-10.4c-0.2-0.3-0.4-0.5-0.8-0.5c-1.2,0-2.4,0-3.6,0c-0.2,0-0.4,0-0.7,0
		c2.3,3.8,4.5,7.6,6.8,11.4c-0.2,0-0.3,0-0.5,0c-0.9,0-1.7,0-2.6,0c-0.5,0-0.9-0.2-1.2-0.8c-1.7-2.8-3.3-5.6-5-8.4
		c-0.2-0.3-0.3-0.6-0.5-0.9c-2.9,4.9-5.8,9.7-8.7,14.6c2.9,4.8,5.8,9.6,8.7,14.4c2.5-4.2,5-8.3,7.5-12.4c-0.9,0-1.7,0-2.6,0
		c-0.3,0-0.6,0.1-0.8,0.5c-1.2,2-2.5,3.9-3.7,5.9c-0.1,0.2-0.3,0.4-0.5,0.7c0-3.8,0-7.4,0-11.1c0.1,0,0.2,0,0.2,0
		c6.4,0,12.8,0,19.2,0c0.3,0,0.6,0.2,0.8,0.5C153.8,132.3,154.1,132.7,154.4,133.1z M131.7,113.3c0-2,0-3.9,0-5.9
		c-1.2,2-2.4,3.9-3.5,5.9C129.3,113.3,130.5,113.3,131.7,113.3z M135,113.3c1.2,0,2.4,0,3.5,0c-1.2-2-2.3-3.9-3.5-5.8
		c0,0,0,0-0.1,0.1C135,109.5,135,111.4,135,113.3z"/>
</g>
</svg>
